<svg width="13" height="13" viewBox="0 0 1792 1792" xmlns="http://www.w3.org/2000/svg">
  <path fill="#f7a400" d="M 896 127.88462 C 756.66681 127.88462 628.12809 162.3334 510.46154 231 C 392.79499 299.6666 299.6666 392.79499 231 510.46154 C 162.3334 628.12809 127.88462 756.66681 127.88462 896 C 127.88462 1035.3332 162.3334 1163.8719 231 1281.5385 C 299.6666 1399.205 392.79499 1492.3334 510.46154 1561 C 628.12809 1629.6666 756.66681 1664.1154 896 1664.1154 C 1035.3332 1664.1154 1163.8719 1629.6666 1281.5385 1561 C 1399.205 1492.3334 1492.3334 1399.205 1561 1281.5385 C 1629.6666 1163.8719 1664.1154 1035.3332 1664.1154 896 C 1664.1154 756.66681 1629.6666 628.12809 1561 510.46154 C 1492.3334 392.79499 1399.205 299.6666 1281.5385 231 C 1163.8719 162.3334 1035.3332 127.88462 896 127.88462 z M 374.76923 429.96154 L 682.5 429.96154 L 896.26923 931.80769 L 1111.1154 429.96154 L 1418.3077 429.96154 L 1418.3077 1367.9615 L 1189.4615 1367.9615 L 1189.4615 681.96154 L 973.53846 1187.5769 L 820.07692 1187.5769 L 604.15385 681.96154 L 604.15385 1367.9615 L 374.76923 1367.9615 L 374.76923 429.96154 z "/>
</svg>
